<svg id="Capa_1" enable-background="new 0 0 512 512" height="512" viewBox="0 0 512 512" width="512" xmlns="http://www.w3.org/2000/svg"><path d="m421 15v452c0 8.401-6.599 15-15 15s-15-6.599-15-15v-452c0-8.401 6.599-15 15-15s15 6.599 15 15z" fill="#e0f4ff"/><path d="m421 15v452c0 8.401-6.599 15-15 15v-482c8.401 0 15 6.599 15 15z" fill="#bbdcff"/><path d="m181 15v452c0 8.401-6.599 15-15 15s-15-6.599-15-15v-452c0-8.401 6.599-15 15-15s15 6.599 15 15z" fill="#e0f4ff"/><path d="m181 15v452c0 8.401-6.599 15-15 15v-482c8.401 0 15 6.599 15 15z" fill="#bbdcff"/><path d="m301 15v452c0 8.401-6.599 15-15 15s-15-6.599-15-15v-452c0-8.401 6.599-15 15-15s15 6.599 15 15z" fill="#e0f4ff"/><path d="m301 15v452c0 8.401-6.599 15-15 15v-482c8.401 0 15 6.599 15 15z" fill="#bbdcff"/><path d="m316 60h-60c-8.401 0-15 6.599-15 15v121c0 8.401 6.599 15 15 15h60c8.401 0 15-6.599 15-15v-121c0-8.401-6.599-15-15-15z" fill="#ffda2d"/><g fill="#596c76"><path d="m75 120h-30c-8.291 0-15-6.709-15-15s6.709-15 15-15h30c8.291 0 15 6.709 15 15s-6.709 15-15 15z"/><path d="m75 211h-30c-8.291 0-15-6.709-15-15s6.709-15 15-15h30c8.291 0 15 6.709 15 15s-6.709 15-15 15z"/><path d="m75 391h-30c-8.291 0-15-6.709-15-15s6.709-15 15-15h30c8.291 0 15 6.709 15 15s-6.709 15-15 15z"/><path d="m75 301h-30c-8.291 0-15-6.709-15-15s6.709-15 15-15h30c8.291 0 15 6.709 15 15s-6.709 15-15 15z"/><path d="m507.499 477.499-30 30c-5.7 6-15.298 6-20.999 0-6-5.7-6-15.298 0-20.999l4.199-4.501h-415.699c-8.401 0-15-6.599-15-15v-415.698l-4.501 4.199c-5.7 6-15.298 6-20.999 0-6-5.7-6-15.298 0-20.999l30-30c5.7-6 15.298-6 20.999 0l30 30c6 5.7 6 15.298 0 20.999-5.7 6-15.298 6-20.999 0l-4.5-4.199v400.699h400.699l-4.199-4.501c-6-5.7-6-15.298 0-20.999 5.7-6 15.298-6 20.999 0l30 30c6 5.701 6 15.299 0 20.999z"/></g><path d="m507.499 477.499-30 30c-5.7 6-15.298 6-20.999 0-6-5.7-6-15.298 0-20.999l4.199-4.501h-174.699v-30h174.699l-4.199-4.501c-6-5.7-6-15.298 0-20.999 5.7-6 15.298-6 20.999 0l30 30c6 5.702 6 15.3 0 21z" fill="#465a61"/><path d="m331 75v121c0 8.401-6.599 15-15 15h-30v-151h30c8.401 0 15 6.599 15 15z" fill="#fdbf00"/><path d="m196 241h-60c-8.401 0-15 6.599-15 15v120c0 8.401 6.599 15 15 15h60c8.401 0 15-6.599 15-15v-120c0-8.401-6.599-15-15-15z" fill="#ff641a"/><path d="m211 256v120c0 8.401-6.599 15-15 15h-30v-150h30c8.401 0 15 6.599 15 15z" fill="#f03800"/><path d="m436 151h-60c-8.401 0-15 6.599-15 15v120c0 8.401 6.599 15 15 15h60c8.401 0 15-6.599 15-15v-120c0-8.401-6.599-15-15-15z" fill="#5ecef4"/><path d="m451 166v120c0 8.401-6.599 15-15 15h-30v-150h30c8.401 0 15 6.599 15 15z" fill="#27b2eb"/></svg>