<svg id="Layer_1" enable-background="new 0 0 150 150" height="512" viewBox="0 0 150 150" width="512" xmlns="http://www.w3.org/2000/svg"><g><g fill="#3a556a"><path d="m18.551 9 6.735 14.986h-4.794v108.337h113.675v-4.795l14.967 6.736-14.967 6.736v-4.795h-117.558v-1.941-1.941-108.337h-4.794z"/><path d="m.866 130.556h8.696v3.979h-8.696z"/><path d="m.866 116.561h8.696v3.979h-8.696z"/><path d="m.866 102.584h8.696v3.979h-8.696z"/><path d="m.866 88.588h8.696v3.979h-8.696z"/><path d="m.866 74.592h8.696v3.979h-8.696z"/><path d="m.866 60.616h8.696v3.979h-8.696z"/><path d="m.866 46.62h8.696v3.979h-8.696z"/><path d="m.866 32.624h8.696v3.979h-8.696z"/></g><path d="m20.492 109.708 25.507-17.14 34.475 3.319 49.092-37.096v73.532h-109.074z" fill="#fe7058"/><path d="m28.198 82.551-2.582-2.892 23.314-20.713 28.904 10.968 36.514-27.37 2.329 3.105-38.222 28.652-28.71-10.89z" fill="#3a556a"/><path d="m83.988 71.312c0 2.916-2.364 5.28-5.28 5.28s-5.28-2.364-5.28-5.28 2.364-5.28 5.28-5.28 5.28 2.364 5.28 5.28z" fill="#e6e9ef"/><path d="m78.708 78.533c-3.988 0-7.221-3.233-7.221-7.221s3.233-7.221 7.221-7.221 7.221 3.233 7.221 7.221c-.011 3.983-3.238 7.21-7.221 7.221zm0-10.56c-1.844 0-3.339 1.495-3.339 3.339s1.495 3.339 3.339 3.339 3.339-1.495 3.339-3.339-1.495-3.339-3.339-3.339z" fill="#e56353"/><path d="m119.647 44.562c0 2.916-2.364 5.28-5.28 5.28s-5.28-2.364-5.28-5.28 2.364-5.28 5.28-5.28 5.28 2.364 5.28 5.28z" fill="#e6e9ef"/><path d="m114.328 51.706c-3.988-.022-7.204-3.272-7.182-7.26s3.272-7.204 7.26-7.182 7.203 3.272 7.182 7.26v.038c-.053 3.969-3.291 7.155-7.26 7.144zm0-10.56c-1.844.022-3.321 1.534-3.299 3.378s1.534 3.321 3.378 3.299c1.798-.021 3.256-1.463 3.298-3.261 0-1.844-1.495-3.339-3.339-3.339-.013 0-.026 0-.039 0v-.077z" fill="#e56353"/><path d="m55.084 61.412c.032 2.916-2.306 5.306-5.222 5.338s-5.306-2.306-5.338-5.222 2.306-5.306 5.222-5.338h.019c2.908-.022 5.287 2.313 5.319 5.222z" fill="#e6e9ef"/><path d="m49.765 68.691c-3.988-.022-7.204-3.272-7.182-7.26s3.272-7.204 7.26-7.182c3.95.021 7.15 3.213 7.182 7.163.021 3.999-3.203 7.258-7.202 7.279-.019 0-.039 0-.058 0zm0-10.56c-1.844.022-3.321 1.534-3.299 3.378s1.534 3.321 3.378 3.299 3.321-1.534 3.299-3.378c0-.006 0-.012 0-.019-.033-1.836-1.542-3.301-3.378-3.28z" fill="#e56353"/><path d="m35.439 79.368c0 2.916-2.364 5.28-5.28 5.28s-5.28-2.364-5.28-5.28 2.364-5.28 5.28-5.28 5.28 2.364 5.28 5.28z" fill="#e6e9ef"/><path d="m30.159 86.647c-3.988 0-7.221-3.233-7.221-7.221s3.233-7.221 7.221-7.221 7.221 3.233 7.221 7.221c-.011 3.984-3.237 7.21-7.221 7.221zm0-10.56c-1.844 0-3.339 1.495-3.339 3.339s1.495 3.339 3.339 3.339 3.339-1.495 3.339-3.339c.032-1.844-1.436-3.364-3.28-3.397-.02 0-.039-.001-.059-.001z" fill="#e56353"/></g></svg>